<?xml version="1.0" encoding="UTF-8"?>
<svg id="Capa_1" xmlns="http://www.w3.org/2000/svg" version="1.1" viewBox="0 0 19.2 19.2">
  <!-- Generator: Adobe Illustrator 29.0.1, SVG Export Plug-In . SVG Version: 2.1.0 Build 192)  -->
  <defs>
    <style>
      .st0 {
        fill: #fff;
      }
    </style>
  </defs>
  <circle class="st0" cx="9.6" cy="9.6" r="9.6"/>
  <path d="M10.8,7.1c-1.1,0-2.2,0-3.3,0l-.7,1.7h6.1l2.7-6.8c-1.6-1.3-3.7-2-5.9-2C4.3,0,0,4.3,0,9.6s.1,1.7.3,2.5h10.5c.8-.1,1.2-1.4,1.4-2.1h-5.6c-.4,0-1-.8-1-1.2,0-.3.8-2.2,1.1-2.4.6-.5,3.3-.2,4.3-.3.4,0,1.4-.4,1.4.6,0,1.1-1,.5-1.5.5h0ZM13.2,2.9c.7,0,.9,1.5,0,1.8-.9,0-.9-1.7,0-1.8Z"/>
  <path d="M15,6.1l1.4-3.2c.9.9,1.6,2,2.1,3.2h-3.5Z"/>
  <path d="M19.2,9.6c0,5.3-4.3,9.6-9.6,9.6S2.2,16.7.8,13.3c.9-.3,8.5,0,9.7,0,.5,0,1.1-.2,1.5-.5,1.1-.8,1.9-4.3,2.7-5.6h4.2c.2.8.3,1.6.3,2.4h0Z"/>
</svg>