<?xml version="1.0" encoding="UTF-8"?>
<svg id="Capa_1" xmlns="http://www.w3.org/2000/svg" version="1.1" viewBox="0 0 19.17 19.17">
  <!-- Generator: Adobe Illustrator 29.0.1, SVG Export Plug-In . SVG Version: 2.1.0 Build 192)  -->
  <path d="M10.82,7.12c-1.1-.06-2.23.03-3.34.02l-.73,1.66h6.07l2.67-6.77C13.86.76,11.81,0,9.58,0,4.29,0,0,4.29,0,9.58,0,10.43.11,11.26.32,12.05h10.5c.8-.11,1.21-1.37,1.35-2.08h-5.62c-.4,0-.98-.77-.96-1.22.01-.33.84-2.18,1.11-2.39.61-.49,3.31-.25,4.25-.27.44,0,1.4-.36,1.35.56-.05,1.06-1.01.49-1.49.46ZM13.17,2.87c.68-.06.9,1.54.09,1.77-.94-.04-.89-1.7-.09-1.77Z"/>
  <path d="M15.02,6.08l1.37-3.25c.91.92,1.64,2.02,2.12,3.25h-3.49Z"/>
  <path d="M19.17,9.58c0,5.29-4.29,9.58-9.58,9.58-3.98,0-7.39-2.42-8.84-5.87.89-.3,8.46.02,9.69-.09.51-.04,1.05-.17,1.47-.47,1.13-.79,1.86-4.33,2.72-5.56h4.23c.2.76.3,1.57.3,2.4Z"/>
</svg>